<svg width="16" height="16" viewBox="0 0 16 16" fill="none" xmlns="http://www.w3.org/2000/svg">
<path d="M14.613 4.41333C14.5453 4.25043 14.4159 4.12098 14.253 4.05333C14.1728 4.01917 14.0868 4.00105 13.9996 4H10.6663C10.4895 4 10.3199 4.07024 10.1949 4.19526C10.0699 4.32029 9.99963 4.48986 9.99963 4.66667C9.99963 4.84348 10.0699 5.01305 10.1949 5.13807C10.3199 5.2631 10.4895 5.33333 10.6663 5.33333H12.393L8.6663 9.06L6.47297 6.86C6.41099 6.79751 6.33726 6.74792 6.25602 6.71407C6.17478 6.68023 6.08764 6.6628 5.99963 6.6628C5.91163 6.6628 5.82449 6.68023 5.74325 6.71407C5.66201 6.74792 5.58828 6.79751 5.5263 6.86L1.5263 10.86C1.46381 10.922 1.41422 10.9957 1.38037 11.0769C1.34653 11.1582 1.3291 11.2453 1.3291 11.3333C1.3291 11.4213 1.34653 11.5085 1.38037 11.5897C1.41422 11.671 1.46381 11.7447 1.5263 11.8067C1.58828 11.8692 1.66201 11.9187 1.74325 11.9526C1.82449 11.9864 1.91163 12.0039 1.99963 12.0039C2.08764 12.0039 2.17478 11.9864 2.25602 11.9526C2.33726 11.9187 2.41099 11.8692 2.47297 11.8067L5.99963 8.27333L8.19297 10.4733C8.25494 10.5358 8.32868 10.5854 8.40992 10.6193C8.49116 10.6531 8.57829 10.6705 8.6663 10.6705C8.75431 10.6705 8.84145 10.6531 8.92269 10.6193C9.00392 10.5854 9.07766 10.5358 9.13963 10.4733L13.333 6.27333V8C13.333 8.17681 13.4032 8.34638 13.5282 8.4714C13.6533 8.59643 13.8228 8.66667 13.9996 8.66667C14.1764 8.66667 14.346 8.59643 14.471 8.4714C14.5961 8.34638 14.6663 8.17681 14.6663 8V4.66667C14.6652 4.57955 14.6471 4.49348 14.613 4.41333Z" fill="#68FC80"/>
</svg>
