<svg width="96" height="96" viewBox="0 0 96 96" fill="none" xmlns="http://www.w3.org/2000/svg">
<g clip-path="url(#clip0_716_4944)">
<mask id="mask0_716_4944" style="mask-type:luminance" maskUnits="userSpaceOnUse" x="0" y="0" width="96" height="96">
<path d="M96 0H0V96H96V0Z" fill="white"/>
</mask>
<g mask="url(#mask0_716_4944)">
<g opacity="0.5">
<path d="M77.6316 48.0001C77.6316 63.8844 64.7547 76.7611 48.8705 76.7611C32.9861 76.7611 20.1094 63.8844 20.1094 48.0001C20.1094 32.1157 32.9861 19.239 48.8705 19.239C64.7547 19.239 77.6316 32.1157 77.6316 48.0001Z" fill="#F9C3C4"/>
</g>
<g opacity="0.35">
<path d="M77.8392 47.9999C77.8392 63.9955 64.8722 76.9624 48.8767 76.9624C32.881 76.9624 19.9141 63.9955 19.9141 47.9999C19.9141 32.0043 32.881 19.0374 48.8767 19.0374C64.8722 19.0374 77.8392 32.0043 77.8392 47.9999Z" fill="#F9C3C4"/>
</g>
<g opacity="0.2">
<path d="M78.542 47.9999C78.542 64.3722 65.2696 77.6444 48.8975 77.6444C32.5252 77.6444 19.2529 64.3722 19.2529 47.9999C19.2529 31.6277 32.5252 18.3555 48.8975 18.3555C65.2696 18.3555 78.542 31.6277 78.542 47.9999Z" fill="#D86668"/>
</g>
<path d="M78.542 47.9999C78.542 64.3722 65.2696 77.6444 48.8975 77.6444C32.5252 77.6444 19.2529 64.3722 19.2529 47.9999C19.2529 31.6277 32.5252 18.3555 48.8975 18.3555C65.2696 18.3555 78.542 31.6277 78.542 47.9999Z" fill="#F01C20"/>
<path d="M41.7779 30.8759C41.2684 30.45 39.927 29.3285 38.2238 29.4869C37.1772 29.5842 36.4735 30.1203 35.1599 31.121C34.0412 31.9731 33.1226 32.6729 32.5862 33.8989C32.108 34.9923 32.1581 35.9912 32.2186 36.7993C32.4788 40.2673 32.6088 42.0013 33.4442 44.5203C35.5617 50.9062 39.654 55.6195 40.0621 56.0813C45.4317 62.1588 51.2727 64.3142 54.6464 65.5591C57.1271 66.4744 59.0756 66.8719 61.0191 66.1718C62.9955 65.4599 64.3944 63.8196 65.3494 62.6994C65.836 62.1288 66.1282 61.6909 66.2891 61.1062C66.7099 59.5753 65.8908 58.1591 65.6353 57.7155C63.9168 54.7302 59.1624 53.0778 56.362 54.5291C55.2774 55.0912 55.0526 55.8252 53.8292 56.0813C52.5632 56.3465 51.3356 55.868 49.8257 54.9375C42.6052 50.4881 41.4063 43.3938 41.3694 42.8864C41.3535 42.6673 41.4103 42.4777 41.4103 42.4777C41.5844 41.8965 42.2209 41.6309 42.4725 41.4974C43.167 41.1285 43.4548 40.4237 43.984 39.1279C44.895 36.8967 44.3443 33.0214 41.7779 30.8759Z" fill="#FDFEFE"/>
</g>
</g>
<defs>
<clipPath id="clip0_716_4944">
<rect width="96" height="96" fill="white"/>
</clipPath>
</defs>
</svg>
