<svg width="25" height="24" viewBox="0 0 25 24" fill="none" xmlns="http://www.w3.org/2000/svg">
<path d="M12.75 24C17.721 24 21.75 21 21.75 15.75C21.75 13.5 21 9.75 18 6.75C18.375 9 16.125 9.75 16.125 9.75C17.25 6 14.25 0.75 9.75 0C10.2855 3 10.5 6 6.75 9C4.875 10.5 3.75 13.0935 3.75 15.75C3.75 21 7.779 24 12.75 24ZM12.75 22.5C10.2645 22.5 8.25 21 8.25 18.375C8.25 17.25 8.625 15.375 10.125 13.875C9.9375 15 11.25 15.75 11.25 15.75C10.6875 13.875 12 10.875 14.25 10.5C13.9815 12 13.875 13.5 15.75 15C16.6875 15.75 17.25 17.046 17.25 18.375C17.25 21 15.2355 22.5 12.75 22.5Z" fill="white"/>
</svg>
