<svg width="25" height="24" viewBox="0 0 25 24" fill="none" xmlns="http://www.w3.org/2000/svg">
<path d="M23.455 11.745C22.5729 9.46324 21.0415 7.48996 19.0501 6.06906C17.0587 4.64817 14.6946 3.84193 12.25 3.75C9.80539 3.84193 7.44129 4.64817 5.4499 6.06906C3.45851 7.48996 1.92712 9.46324 1.045 11.745C0.985425 11.9098 0.985425 12.0902 1.045 12.255C1.92712 14.5368 3.45851 16.51 5.4499 17.9309C7.44129 19.3518 9.80539 20.1581 12.25 20.25C14.6946 20.1581 17.0587 19.3518 19.0501 17.9309C21.0415 16.51 22.5729 14.5368 23.455 12.255C23.5146 12.0902 23.5146 11.9098 23.455 11.745ZM12.25 18.75C8.275 18.75 4.075 15.8025 2.5525 12C4.075 8.1975 8.275 5.25 12.25 5.25C16.225 5.25 20.425 8.1975 21.9475 12C20.425 15.8025 16.225 18.75 12.25 18.75Z" fill="white"/>
<path d="M12.25 7.5C11.36 7.5 10.49 7.76392 9.74993 8.25839C9.00991 8.75285 8.43314 9.45566 8.09254 10.2779C7.75195 11.1002 7.66283 12.005 7.83647 12.8779C8.0101 13.7508 8.43868 14.5526 9.06802 15.182C9.69736 15.8113 10.4992 16.2399 11.3721 16.4135C12.245 16.5872 13.1498 16.4981 13.9721 16.1575C14.7943 15.8169 15.4971 15.2401 15.9916 14.5001C16.4861 13.76 16.75 12.89 16.75 12C16.75 10.8065 16.2759 9.66193 15.432 8.81802C14.5881 7.97411 13.4435 7.5 12.25 7.5ZM12.25 15C11.6567 15 11.0766 14.8241 10.5833 14.4944C10.0899 14.1648 9.70542 13.6962 9.47836 13.148C9.2513 12.5999 9.19189 11.9967 9.30764 11.4147C9.4234 10.8328 9.70912 10.2982 10.1287 9.87868C10.5482 9.45912 11.0828 9.1734 11.6647 9.05764C12.2467 8.94189 12.8499 9.0013 13.3981 9.22836C13.9462 9.45542 14.4148 9.83994 14.7444 10.3333C15.0741 10.8266 15.25 11.4067 15.25 12C15.25 12.7956 14.9339 13.5587 14.3713 14.1213C13.8087 14.6839 13.0457 15 12.25 15Z" fill="white"/>
</svg>
