<svg width="12" height="12" viewBox="0 0 12 12" fill="none" xmlns="http://www.w3.org/2000/svg">
<path d="M8.5 9C8.76522 9 9.01957 9.10536 9.20711 9.29289C9.39464 9.48043 9.5 9.73478 9.5 10C9.5 10.2652 9.39464 10.5196 9.20711 10.7071C9.01957 10.8946 8.76522 11 8.5 11C8.23478 11 7.98043 10.8946 7.79289 10.7071C7.60536 10.5196 7.5 10.2652 7.5 10C7.5 9.445 7.945 9 8.5 9ZM0.5 1H2.135L2.605 2H10C10.1326 2 10.2598 2.05268 10.3536 2.14645C10.4473 2.24021 10.5 2.36739 10.5 2.5C10.5 2.585 10.475 2.67 10.44 2.75L8.65 5.985C8.48 6.29 8.15 6.5 7.775 6.5H4.05L3.6 7.315L3.585 7.375C3.585 7.40815 3.59817 7.43995 3.62161 7.46339C3.64505 7.48683 3.67685 7.5 3.71 7.5H9.5V8.5H3.5C3.23478 8.5 2.98043 8.39464 2.79289 8.20711C2.60536 8.01957 2.5 7.76522 2.5 7.5C2.5 7.325 2.545 7.16 2.62 7.02L3.3 5.795L1.5 2H0.5V1ZM3.5 9C3.76522 9 4.01957 9.10536 4.20711 9.29289C4.39464 9.48043 4.5 9.73478 4.5 10C4.5 10.2652 4.39464 10.5196 4.20711 10.7071C4.01957 10.8946 3.76522 11 3.5 11C3.23478 11 2.98043 10.8946 2.79289 10.7071C2.60536 10.5196 2.5 10.2652 2.5 10C2.5 9.445 2.945 9 3.5 9ZM8 5.5L9.39 3H3.07L4.25 5.5H8Z" fill="white"/>
</svg>
