<svg width="24" height="24" viewBox="0 0 24 24" fill="none" xmlns="http://www.w3.org/2000/svg">
<g clip-path="url(#clip0_188_600)">
<path d="M17.25 12H18.75V10.3L20.225 11.15L20.975 9.85L19.5 9L20.975 8.15L20.225 6.85L18.75 7.7V6H17.25V7.7L15.775 6.85L15.025 8.15L16.5 9L15.025 9.85L15.775 11.15L17.25 10.3V12ZM2 21C1.45 21 0.979002 20.804 0.587002 20.412C0.195002 20.02 -0.000664969 19.5493 1.69779e-06 19V5C1.69779e-06 4.45 0.196002 3.979 0.588002 3.587C0.980002 3.195 1.45067 2.99934 2 3H22C22.55 3 23.021 3.196 23.413 3.588C23.805 3.98 24.0007 4.45067 24 5V19C24 19.55 23.804 20.021 23.412 20.413C23.02 20.805 22.5493 21.0007 22 21H2ZM15.9 19H22V5H2V19H2.1C2.8 17.75 3.76667 16.7707 5 16.062C6.23334 15.3533 7.56667 14.9993 9 15C10.4333 15 11.7667 15.3543 13 16.063C14.2333 16.7717 15.2 17.7507 15.9 19ZM9 14C9.83333 14 10.5417 13.7083 11.125 13.125C11.7083 12.5417 12 11.8333 12 11C12 10.1667 11.7083 9.45834 11.125 8.875C10.5417 8.29167 9.83333 8 9 8C8.16667 8 7.45834 8.29167 6.875 8.875C6.29167 9.45834 6 10.1667 6 11C6 11.8333 6.29167 12.5417 6.875 13.125C7.45834 13.7083 8.16667 14 9 14ZM4.55 19H13.45C12.8833 18.3667 12.2123 17.875 11.437 17.525C10.6617 17.175 9.84934 17 9 17C8.15 17 7.34167 17.175 6.575 17.525C5.80834 17.875 5.13334 18.3667 4.55 19ZM9 12C8.71667 12 8.479 11.904 8.287 11.712C8.095 11.52 7.99934 11.2827 8 11C8 10.7167 8.096 10.479 8.288 10.287C8.48 10.095 8.71734 9.99934 9 10C9.28334 10 9.521 10.096 9.713 10.288C9.905 10.48 10.0007 10.7173 10 11C10 11.2833 9.904 11.521 9.712 11.713C9.52 11.905 9.28267 12.0007 9 12Z" fill="white"/>
</g>
<defs>
<clipPath id="clip0_188_600">
<rect width="24" height="24" fill="white"/>
</clipPath>
</defs>
</svg>
