<svg width="25" height="24" viewBox="0 0 25 24" fill="none" xmlns="http://www.w3.org/2000/svg">
<path d="M12.5 17C12.7833 17 13.021 16.904 13.213 16.712C13.405 16.52 13.5007 16.2827 13.5 16C13.5 15.7167 13.404 15.479 13.212 15.287C13.02 15.095 12.7827 14.9993 12.5 15C12.2167 15 11.979 15.096 11.787 15.288C11.595 15.48 11.4993 15.7173 11.5 16C11.5 16.2833 11.596 16.521 11.788 16.713C11.98 16.905 12.2173 17.0007 12.5 17ZM11.5 13H13.5V7H11.5V13ZM12.5 22C11.1167 22 9.81667 21.7373 8.6 21.212C7.38333 20.6867 6.325 19.9743 5.425 19.075C4.525 18.175 3.81267 17.1167 3.288 15.9C2.76333 14.6833 2.50067 13.3833 2.5 12C2.5 10.6167 2.76267 9.31667 3.288 8.1C3.81333 6.88333 4.52567 5.825 5.425 4.925C6.325 4.025 7.38333 3.31267 8.6 2.788C9.81667 2.26333 11.1167 2.00067 12.5 2C13.8833 2 15.1833 2.26267 16.4 2.788C17.6167 3.31333 18.675 4.02567 19.575 4.925C20.475 5.825 21.1877 6.88333 21.713 8.1C22.2383 9.31667 22.5007 10.6167 22.5 12C22.5 13.3833 22.2373 14.6833 21.712 15.9C21.1867 17.1167 20.4743 18.175 19.575 19.075C18.675 19.975 17.6167 20.6877 16.4 21.213C15.1833 21.7383 13.8833 22.0007 12.5 22ZM12.5 20C14.7333 20 16.625 19.225 18.175 17.675C19.725 16.125 20.5 14.2333 20.5 12C20.5 9.76667 19.725 7.875 18.175 6.325C16.625 4.775 14.7333 4 12.5 4C10.2667 4 8.375 4.775 6.825 6.325C5.275 7.875 4.5 9.76667 4.5 12C4.5 14.2333 5.275 16.125 6.825 17.675C8.375 19.225 10.2667 20 12.5 20Z" fill="#FB0000"/>
</svg>
