<svg width="20" height="20" viewBox="0 0 20 20" fill="none" xmlns="http://www.w3.org/2000/svg">
<path d="M8.71397 6.74556C8.94097 6.56556 9.21097 6.43456 9.49997 6.35156V9.14656C9.2147 9.06845 8.94762 8.93491 8.71397 8.75356C8.31997 8.44056 8.16797 8.07256 8.16797 7.74956C8.16797 7.42656 8.31997 7.05856 8.71397 6.74556ZM11 13.6616V10.8376C11.347 10.9226 11.664 11.0656 11.921 11.2586C12.348 11.5786 12.5 11.9446 12.5 12.2496C12.5 12.5546 12.348 12.9206 11.921 13.2406C11.6453 13.4411 11.3321 13.5849 11 13.6616Z" fill="white"/>
<path fill-rule="evenodd" clip-rule="evenodd" d="M10.25 0.25C4.865 0.25 0.5 4.615 0.5 10C0.5 15.385 4.865 19.75 10.25 19.75C15.635 19.75 20 15.385 20 10C20 4.615 15.635 0.25 10.25 0.25ZM11 4C11 3.80109 10.921 3.61032 10.7803 3.46967C10.6397 3.32902 10.4489 3.25 10.25 3.25C10.0511 3.25 9.86032 3.32902 9.71967 3.46967C9.57902 3.61032 9.5 3.80109 9.5 4V4.816C8.87286 4.92153 8.2818 5.18132 7.78 5.572C7.068 6.138 6.668 6.922 6.668 7.75C6.668 8.579 7.068 9.362 7.781 9.928C8.283 10.328 8.883 10.575 9.5 10.684V13.662C9.16782 13.585 8.85458 13.4418 8.579 13.241L7.7 12.581C7.62121 12.5219 7.53155 12.4789 7.43614 12.4545C7.34073 12.43 7.24144 12.4246 7.14393 12.4385C6.94702 12.4667 6.76935 12.5719 6.65 12.731C6.53065 12.8901 6.47941 13.0902 6.50754 13.2871C6.53567 13.484 6.64087 13.6617 6.8 13.781L7.679 14.441C8.212 14.841 8.848 15.086 9.5 15.191V16C9.5 16.1989 9.57902 16.3897 9.71967 16.5303C9.86032 16.671 10.0511 16.75 10.25 16.75C10.4489 16.75 10.6397 16.671 10.7803 16.5303C10.921 16.3897 11 16.1989 11 16V15.19C11.6586 15.091 12.2834 14.834 12.821 14.441C13.566 13.882 14 13.097 14 12.25C14 11.403 13.566 10.618 12.821 10.059C12.2835 9.66554 11.6587 9.40819 11 9.309V6.354C11.29 6.436 11.559 6.567 11.786 6.747L12.201 7.077C12.3568 7.20072 12.5554 7.25748 12.7531 7.23479C12.9507 7.2121 13.1313 7.11181 13.255 6.956C13.3787 6.80019 13.4355 6.6016 13.4128 6.40394C13.3901 6.20628 13.2898 6.02572 13.134 5.902L12.719 5.572C12.2174 5.18183 11.6267 4.92239 11 4.817V4Z" fill="white"/>
</svg>
