<svg width="24" height="24" viewBox="0 0 24 24" fill="none" xmlns="http://www.w3.org/2000/svg">
<rect width="24" height="24" rx="5" fill="#FFB800"/>
<path d="M9.99996 7.33301C9.82315 7.33301 9.65358 7.40325 9.52855 7.52828C9.40353 7.6533 9.33329 7.82287 9.33329 7.99968C9.33329 8.17649 9.40353 8.34606 9.52855 8.47109C9.65358 8.59611 9.82315 8.66635 9.99996 8.66635C10.1768 8.66635 10.3463 8.59611 10.4714 8.47109C10.5964 8.34606 10.6666 8.17649 10.6666 7.99968C10.6666 7.82287 10.5964 7.6533 10.4714 7.52828C10.3463 7.40325 10.1768 7.33301 9.99996 7.33301ZM8.11329 7.33301C8.25103 6.94266 8.50645 6.60464 8.84436 6.36554C9.18227 6.12644 9.58602 5.99805 9.99996 5.99805C10.4139 5.99805 10.8177 6.12644 11.1556 6.36554C11.4935 6.60464 11.7489 6.94266 11.8866 7.33301H16.6666C16.8434 7.33301 17.013 7.40325 17.138 7.52828C17.2631 7.6533 17.3333 7.82287 17.3333 7.99968C17.3333 8.17649 17.2631 8.34606 17.138 8.47109C17.013 8.59611 16.8434 8.66635 16.6666 8.66635H11.8866C11.7489 9.0567 11.4935 9.39473 11.1556 9.63382C10.8177 9.87292 10.4139 10.0013 9.99996 10.0013C9.58602 10.0013 9.18227 9.87292 8.84436 9.63382C8.50645 9.39473 8.25103 9.0567 8.11329 8.66635H7.33329C7.15648 8.66635 6.98691 8.59611 6.86189 8.47109C6.73686 8.34606 6.66663 8.17649 6.66663 7.99968C6.66663 7.82287 6.73686 7.6533 6.86189 7.52828C6.98691 7.40325 7.15648 7.33301 7.33329 7.33301H8.11329ZM14 11.333C13.8231 11.333 13.6536 11.4033 13.5286 11.5283C13.4035 11.6533 13.3333 11.8229 13.3333 11.9997C13.3333 12.1765 13.4035 12.3461 13.5286 12.4711C13.6536 12.5961 13.8231 12.6663 14 12.6663C14.1768 12.6663 14.3463 12.5961 14.4714 12.4711C14.5964 12.3461 14.6666 12.1765 14.6666 11.9997C14.6666 11.8229 14.5964 11.6533 14.4714 11.5283C14.3463 11.4033 14.1768 11.333 14 11.333ZM12.1133 11.333C12.251 10.9427 12.5065 10.6046 12.8444 10.3655C13.1823 10.1264 13.586 9.99805 14 9.99805C14.4139 9.99805 14.8177 10.1264 15.1556 10.3655C15.4935 10.6046 15.7489 10.9427 15.8866 11.333H16.6666C16.8434 11.333 17.013 11.4033 17.138 11.5283C17.2631 11.6533 17.3333 11.8229 17.3333 11.9997C17.3333 12.1765 17.2631 12.3461 17.138 12.4711C17.013 12.5961 16.8434 12.6663 16.6666 12.6663H15.8866C15.7489 13.0567 15.4935 13.3947 15.1556 13.6338C14.8177 13.8729 14.4139 14.0013 14 14.0013C13.586 14.0013 13.1823 13.8729 12.8444 13.6338C12.5065 13.3947 12.251 13.0567 12.1133 12.6663H7.33329C7.15648 12.6663 6.98691 12.5961 6.86189 12.4711C6.73686 12.3461 6.66663 12.1765 6.66663 11.9997C6.66663 11.8229 6.73686 11.6533 6.86189 11.5283C6.98691 11.4033 7.15648 11.333 7.33329 11.333H12.1133ZM9.99996 15.333C9.82315 15.333 9.65358 15.4033 9.52855 15.5283C9.40353 15.6533 9.33329 15.8229 9.33329 15.9997C9.33329 16.1765 9.40353 16.3461 9.52855 16.4711C9.65358 16.5961 9.82315 16.6663 9.99996 16.6663C10.1768 16.6663 10.3463 16.5961 10.4714 16.4711C10.5964 16.3461 10.6666 16.1765 10.6666 15.9997C10.6666 15.8229 10.5964 15.6533 10.4714 15.5283C10.3463 15.4033 10.1768 15.333 9.99996 15.333ZM8.11329 15.333C8.25103 14.9427 8.50645 14.6046 8.84436 14.3655C9.18227 14.1264 9.58602 13.998 9.99996 13.998C10.4139 13.998 10.8177 14.1264 11.1556 14.3655C11.4935 14.6046 11.7489 14.9427 11.8866 15.333H16.6666C16.8434 15.333 17.013 15.4033 17.138 15.5283C17.2631 15.6533 17.3333 15.8229 17.3333 15.9997C17.3333 16.1765 17.2631 16.3461 17.138 16.4711C17.013 16.5961 16.8434 16.6663 16.6666 16.6663H11.8866C11.7489 17.0567 11.4935 17.3947 11.1556 17.6338C10.8177 17.8729 10.4139 18.0013 9.99996 18.0013C9.58602 18.0013 9.18227 17.8729 8.84436 17.6338C8.50645 17.3947 8.25103 17.0567 8.11329 16.6663H7.33329C7.15648 16.6663 6.98691 16.5961 6.86189 16.4711C6.73686 16.3461 6.66663 16.1765 6.66663 15.9997C6.66663 15.8229 6.73686 15.6533 6.86189 15.5283C6.98691 15.4033 7.15648 15.333 7.33329 15.333H8.11329Z" fill="#1B1F24"/>
</svg>
