<svg width="19" height="20" viewBox="0 0 19 20" fill="none" xmlns="http://www.w3.org/2000/svg">
<path d="M17.25 0C17.5152 0 17.7696 0.105357 17.9571 0.292893C18.1446 0.48043 18.25 0.734784 18.25 1V19C18.25 19.2652 18.1446 19.5196 17.9571 19.7071C17.7696 19.8946 17.5152 20 17.25 20H3.25C2.98478 20 2.73043 19.8946 2.54289 19.7071C2.35536 19.5196 2.25 19.2652 2.25 19V17H0.25V15H2.25V13H0.25V11H2.25V9H0.25V7H2.25V5H0.25V3H2.25V1C2.25 0.734784 2.35536 0.48043 2.54289 0.292893C2.73043 0.105357 2.98478 0 3.25 0H17.25ZM11.25 6H9.25V9H6.25V11H9.249L9.25 14H11.25L11.249 11H14.25V9H11.25V6Z" fill="white"/>
</svg>
