<svg width="24" height="24" viewBox="0 0 24 24" fill="none" xmlns="http://www.w3.org/2000/svg">
<circle cx="12" cy="12" r="12" fill="#FF4343"/>
<path d="M19 9.875C19 14.25 12.5131 17.7913 12.2369 17.9375C12.1641 17.9767 12.0827 17.9972 12 17.9972C11.9173 17.9972 11.8359 17.9767 11.7631 17.9375C11.5538 17.825 7.79125 15.7694 5.97063 12.8819C5.94714 12.8441 5.93418 12.8006 5.93309 12.7561C5.932 12.7116 5.94281 12.6676 5.96441 12.6287C5.98601 12.5898 6.01761 12.5573 6.05595 12.5347C6.09429 12.5121 6.13798 12.5001 6.1825 12.5H8.5C8.58234 12.5001 8.66342 12.4798 8.73603 12.441C8.80865 12.4021 8.87055 12.346 8.91625 12.2775L9.5 11.4025L11.0837 13.7775C11.1444 13.8685 11.2333 13.9371 11.3367 13.9728C11.4401 14.0085 11.5524 14.0092 11.6562 13.975C11.7665 13.9377 11.8608 13.8641 11.9237 13.7662L12.7675 12.5H14C14.0685 12.5002 14.1364 12.4862 14.1993 12.459C14.2622 12.4319 14.3189 12.392 14.3658 12.342C14.4127 12.292 14.4488 12.2329 14.4719 12.1684C14.495 12.1039 14.5045 12.0353 14.5 11.9669C14.4888 11.8384 14.4295 11.7188 14.3338 11.6322C14.2382 11.5456 14.1134 11.4984 13.9844 11.5H12.5C12.4177 11.4999 12.3366 11.5202 12.264 11.559C12.1914 11.5979 12.1294 11.654 12.0837 11.7225L11.5 12.5975L9.91625 10.2225C9.85553 10.1314 9.76657 10.0627 9.66303 10.027C9.55949 9.99131 9.4471 9.99061 9.34312 10.025C9.23319 10.0625 9.13915 10.1361 9.07625 10.2337L8.2325 11.5H5.47063C5.4172 11.5001 5.36512 11.4832 5.32204 11.4516C5.27897 11.42 5.24715 11.3754 5.23125 11.3244C5.08045 10.8559 5.00246 10.3671 5 9.875C5.00116 8.84764 5.40979 7.86269 6.13624 7.13624C6.86269 6.40979 7.84764 6.00116 8.875 6C10.1656 6 11.2956 6.555 12 7.49312C12.7044 6.555 13.8344 6 15.125 6C16.1524 6.00116 17.1373 6.40979 17.8638 7.13624C18.5902 7.86269 18.9988 8.84764 19 9.875Z" fill="#1B1F24"/>
</svg>
