<svg width="21" height="20" viewBox="0 0 21 20" fill="none" xmlns="http://www.w3.org/2000/svg">
<path d="M10.5 0C16.023 0 20.5 4.477 20.5 10C20.5 15.523 16.023 20 10.5 20C4.977 20 0.5 15.523 0.5 10C0.5 4.477 4.977 0 10.5 0ZM10.5 13C10.2348 13 9.98043 13.1054 9.79289 13.2929C9.60536 13.4804 9.5 13.7348 9.5 14C9.5 14.2652 9.60536 14.5196 9.79289 14.7071C9.98043 14.8946 10.2348 15 10.5 15C10.7652 15 11.0196 14.8946 11.2071 14.7071C11.3946 14.5196 11.5 14.2652 11.5 14C11.5 13.7348 11.3946 13.4804 11.2071 13.2929C11.0196 13.1054 10.7652 13 10.5 13ZM10.5 4C10.2551 4.00003 10.0187 4.08996 9.83563 4.25272C9.65259 4.41547 9.53566 4.63975 9.507 4.883L9.5 5V11C9.50028 11.2549 9.59788 11.5 9.77285 11.6854C9.94782 11.8707 10.187 11.9822 10.4414 11.9972C10.6958 12.0121 10.9464 11.9293 11.1418 11.7657C11.3373 11.6021 11.4629 11.3701 11.493 11.117L11.5 11V5C11.5 4.73478 11.3946 4.48043 11.2071 4.29289C11.0196 4.10536 10.7652 4 10.5 4Z" fill="#00C2FF"/>
</svg>
