<svg width="32" height="32" viewBox="0 0 32 32" fill="none" xmlns="http://www.w3.org/2000/svg">
<path d="M22.667 29.3337V26.667H26.667V22.667H29.3337V27.3337C29.3337 27.867 29.067 28.267 28.667 28.667C28.267 29.067 27.7337 29.3337 27.3337 29.3337H22.667ZM9.33366 29.3337H4.66699C4.13366 29.3337 3.73366 29.067 3.33366 28.667C2.93366 28.267 2.66699 27.7337 2.66699 27.3337V22.667H5.33366V26.667H9.33366V29.3337ZM22.667 2.66699H27.3337C27.867 2.66699 28.267 2.93366 28.667 3.33366C29.067 3.73366 29.3337 4.13366 29.3337 4.66699V9.33366H26.667V5.33366H22.667V2.66699ZM9.33366 2.66699V5.33366H5.33366V9.33366H2.66699V4.66699C2.66699 4.13366 2.93366 3.73366 3.33366 3.33366C3.73366 2.93366 4.13366 2.66699 4.66699 2.66699H9.33366ZM25.3337 14.667H6.66699V17.3337H25.3337V14.667Z" fill="#1B1F24"/>
</svg>
