<svg width="25" height="24" viewBox="0 0 25 24" fill="none" xmlns="http://www.w3.org/2000/svg">
<path d="M3.25 4.375C3.25 3.28098 3.6846 2.23177 4.45818 1.45818C5.23177 0.684597 6.28098 0.25 7.375 0.25C8.46902 0.25 9.51823 0.684597 10.2918 1.45818C11.0654 2.23177 11.5 3.28098 11.5 4.375C11.5 5.46902 11.0654 6.51823 10.2918 7.29182C9.51823 8.0654 8.46902 8.5 7.375 8.5C6.28098 8.5 5.23177 8.0654 4.45818 7.29182C3.6846 6.51823 3.25 5.46902 3.25 4.375ZM13 6.625C13 6.18179 13.0873 5.74292 13.2569 5.33344C13.4265 4.92397 13.6751 4.55191 13.9885 4.23851C14.3019 3.92512 14.674 3.67652 15.0834 3.50691C15.4929 3.3373 15.9318 3.25 16.375 3.25C16.8182 3.25 17.2571 3.3373 17.6666 3.50691C18.076 3.67652 18.4481 3.92512 18.7615 4.23851C19.0749 4.55191 19.3235 4.92397 19.4931 5.33344C19.6627 5.74292 19.75 6.18179 19.75 6.625C19.75 7.52011 19.3944 8.37855 18.7615 9.01149C18.1286 9.64442 17.2701 10 16.375 10C15.4799 10 14.6215 9.64442 13.9885 9.01149C13.3556 8.37855 13 7.52011 13 6.625ZM0.25 17.125C0.25 15.2353 1.00067 13.4231 2.33686 12.0869C3.67306 10.7507 5.48533 10 7.375 10C9.26467 10 11.0769 10.7507 12.4131 12.0869C13.7493 13.4231 14.5 15.2353 14.5 17.125V17.128L14.499 17.247C14.4969 17.3742 14.4625 17.4987 14.3989 17.6089C14.3354 17.7191 14.245 17.8114 14.136 17.877C12.0952 19.106 9.75727 19.7536 7.375 19.75C4.903 19.75 2.589 19.066 0.615 17.877C0.505851 17.8115 0.415167 17.7193 0.351487 17.6091C0.287806 17.4989 0.253225 17.3743 0.251 17.247L0.25 17.125ZM16 17.128L15.999 17.272C15.9934 17.6053 15.9138 17.9332 15.766 18.232C17.5117 18.3397 19.2554 17.9916 20.826 17.222C20.9475 17.1626 21.0506 17.0715 21.1245 16.9583C21.1985 16.8451 21.2404 16.7141 21.246 16.579C21.2813 15.7402 21.0994 14.9066 20.7179 14.1588C20.3364 13.4109 19.7683 12.7743 19.0685 12.3105C18.3688 11.8467 17.5611 11.5715 16.7238 11.5115C15.8864 11.4515 15.0477 11.6087 14.289 11.968C15.4022 13.4566 16.0022 15.2662 15.999 17.125L16 17.128Z" fill="white"/>
</svg>
