<svg width="16" height="16" viewBox="0 0 16 16" fill="none" xmlns="http://www.w3.org/2000/svg">
<path d="M5.99996 3.33301C5.82315 3.33301 5.65358 3.40325 5.52855 3.52828C5.40353 3.6533 5.33329 3.82287 5.33329 3.99968C5.33329 4.17649 5.40353 4.34606 5.52855 4.47109C5.65358 4.59611 5.82315 4.66635 5.99996 4.66635C6.17677 4.66635 6.34634 4.59611 6.47136 4.47109C6.59639 4.34606 6.66663 4.17649 6.66663 3.99968C6.66663 3.82287 6.59639 3.6533 6.47136 3.52828C6.34634 3.40325 6.17677 3.33301 5.99996 3.33301ZM4.11329 3.33301C4.25103 2.94266 4.50645 2.60464 4.84436 2.36554C5.18227 2.12644 5.58602 1.99805 5.99996 1.99805C6.4139 1.99805 6.81765 2.12644 7.15556 2.36554C7.49347 2.60464 7.74889 2.94266 7.88663 3.33301H12.6666C12.8434 3.33301 13.013 3.40325 13.138 3.52828C13.2631 3.6533 13.3333 3.82287 13.3333 3.99968C13.3333 4.17649 13.2631 4.34606 13.138 4.47109C13.013 4.59611 12.8434 4.66635 12.6666 4.66635H7.88663C7.74889 5.0567 7.49347 5.39473 7.15556 5.63382C6.81765 5.87292 6.4139 6.00131 5.99996 6.00131C5.58602 6.00131 5.18227 5.87292 4.84436 5.63382C4.50645 5.39473 4.25103 5.0567 4.11329 4.66635H3.33329C3.15648 4.66635 2.98691 4.59611 2.86189 4.47109C2.73686 4.34606 2.66663 4.17649 2.66663 3.99968C2.66663 3.82287 2.73686 3.6533 2.86189 3.52828C2.98691 3.40325 3.15648 3.33301 3.33329 3.33301H4.11329ZM9.99996 7.33301C9.82315 7.33301 9.65358 7.40325 9.52855 7.52828C9.40353 7.6533 9.33329 7.82287 9.33329 7.99968C9.33329 8.17649 9.40353 8.34606 9.52855 8.47108C9.65358 8.59611 9.82315 8.66635 9.99996 8.66635C10.1768 8.66635 10.3463 8.59611 10.4714 8.47108C10.5964 8.34606 10.6666 8.17649 10.6666 7.99968C10.6666 7.82287 10.5964 7.6533 10.4714 7.52828C10.3463 7.40325 10.1768 7.33301 9.99996 7.33301ZM8.11329 7.33301C8.25103 6.94266 8.50645 6.60464 8.84436 6.36554C9.18227 6.12644 9.58602 5.99805 9.99996 5.99805C10.4139 5.99805 10.8177 6.12644 11.1556 6.36554C11.4935 6.60464 11.7489 6.94266 11.8866 7.33301H12.6666C12.8434 7.33301 13.013 7.40325 13.138 7.52828C13.2631 7.6533 13.3333 7.82287 13.3333 7.99968C13.3333 8.17649 13.2631 8.34606 13.138 8.47108C13.013 8.59611 12.8434 8.66635 12.6666 8.66635H11.8866C11.7489 9.0567 11.4935 9.39472 11.1556 9.63382C10.8177 9.87292 10.4139 10.0013 9.99996 10.0013C9.58602 10.0013 9.18227 9.87292 8.84436 9.63382C8.50645 9.39472 8.25103 9.0567 8.11329 8.66635H3.33329C3.15648 8.66635 2.98691 8.59611 2.86189 8.47108C2.73686 8.34606 2.66663 8.17649 2.66663 7.99968C2.66663 7.82287 2.73686 7.6533 2.86189 7.52828C2.98691 7.40325 3.15648 7.33301 3.33329 7.33301H8.11329ZM5.99996 11.333C5.82315 11.333 5.65358 11.4033 5.52855 11.5283C5.40353 11.6533 5.33329 11.8229 5.33329 11.9997C5.33329 12.1765 5.40353 12.3461 5.52855 12.4711C5.65358 12.5961 5.82315 12.6663 5.99996 12.6663C6.17677 12.6663 6.34634 12.5961 6.47136 12.4711C6.59639 12.3461 6.66663 12.1765 6.66663 11.9997C6.66663 11.8229 6.59639 11.6533 6.47136 11.5283C6.34634 11.4033 6.17677 11.333 5.99996 11.333ZM4.11329 11.333C4.25103 10.9427 4.50645 10.6046 4.84436 10.3655C5.18227 10.1264 5.58602 9.99805 5.99996 9.99805C6.4139 9.99805 6.81765 10.1264 7.15556 10.3655C7.49347 10.6046 7.74889 10.9427 7.88663 11.333H12.6666C12.8434 11.333 13.013 11.4033 13.138 11.5283C13.2631 11.6533 13.3333 11.8229 13.3333 11.9997C13.3333 12.1765 13.2631 12.3461 13.138 12.4711C13.013 12.5961 12.8434 12.6663 12.6666 12.6663H7.88663C7.74889 13.0567 7.49347 13.3947 7.15556 13.6338C6.81765 13.8729 6.4139 14.0013 5.99996 14.0013C5.58602 14.0013 5.18227 13.8729 4.84436 13.6338C4.50645 13.3947 4.25103 13.0567 4.11329 12.6663H3.33329C3.15648 12.6663 2.98691 12.5961 2.86189 12.4711C2.73686 12.3461 2.66663 12.1765 2.66663 11.9997C2.66663 11.8229 2.73686 11.6533 2.86189 11.5283C2.98691 11.4033 3.15648 11.333 3.33329 11.333H4.11329Z" fill="#1B1F24"/>
</svg>
