<svg width="25" height="24" viewBox="0 0 25 24" fill="none" xmlns="http://www.w3.org/2000/svg">
<path fill-rule="evenodd" clip-rule="evenodd" d="M12.75 4C11.3508 3.99974 9.97593 4.36649 8.76273 5.06363C7.54952 5.76077 6.54038 6.76392 5.83603 7.97295C5.13168 9.18199 4.75675 10.5546 4.74868 11.9538C4.7406 13.3531 5.09966 14.7299 5.79001 15.947C6.25662 15.3406 6.85644 14.8496 7.5431 14.512C8.22975 14.1744 8.98485 13.9992 9.75001 14H15.75C16.5152 13.9992 17.2703 14.1744 17.9569 14.512C18.6436 14.8496 19.2434 15.3406 19.71 15.947C20.4004 14.7299 20.7594 13.3531 20.7513 11.9538C20.7433 10.5546 20.3683 9.18199 19.664 7.97295C18.9596 6.76392 17.9505 5.76077 16.7373 5.06363C15.5241 4.36649 14.1493 3.99974 12.75 4ZM20.693 18.076C22.03 16.333 22.7532 14.1968 22.75 12C22.75 6.477 18.273 2 12.75 2C7.22701 2 2.75001 6.477 2.75001 12C2.74671 14.1968 3.46992 16.333 4.80701 18.076L4.80201 18.094L5.15701 18.507C6.0949 19.6035 7.2594 20.4836 8.57024 21.0866C9.88109 21.6897 11.3071 22.0013 12.75 22C14.7773 22.0037 16.7574 21.3879 18.425 20.235C19.1359 19.7438 19.7806 19.163 20.343 18.507L20.698 18.094L20.693 18.076ZM12.75 6C11.9544 6 11.1913 6.31607 10.6287 6.87868C10.0661 7.44129 9.75001 8.20435 9.75001 9C9.75001 9.79565 10.0661 10.5587 10.6287 11.1213C11.1913 11.6839 11.9544 12 12.75 12C13.5457 12 14.3087 11.6839 14.8713 11.1213C15.4339 10.5587 15.75 9.79565 15.75 9C15.75 8.20435 15.4339 7.44129 14.8713 6.87868C14.3087 6.31607 13.5457 6 12.75 6Z" fill="white"/>
</svg>
