<svg width="22" height="19" viewBox="0 0 22 19" fill="none" xmlns="http://www.w3.org/2000/svg">
<path d="M18.15 16.35L18.85 15.65L17 13.8V11H16V14.2L18.15 16.35ZM11.5 6H18.5V2H11.5V6ZM16.5 19C15.1167 19 13.9373 18.5123 12.962 17.537C11.9867 16.5617 11.4993 15.3827 11.5 14C11.5 12.6167 11.9877 11.4373 12.963 10.462C13.9383 9.48667 15.1173 8.99934 16.5 9C17.8833 9 19.0627 9.48767 20.038 10.463C21.0133 11.4383 21.5007 12.6173 21.5 14C21.5 15.3833 21.0123 16.5627 20.037 17.538C19.0617 18.5133 17.8827 19.0007 16.5 19ZM2.5 16C1.95 16 1.479 15.804 1.087 15.412C0.695002 15.02 0.499335 14.5493 0.500002 14V2C0.500002 1.45 0.696002 0.979002 1.088 0.587002C1.48 0.195002 1.95067 -0.000664969 2.5 1.69779e-06H18.5C19.05 1.69779e-06 19.521 0.196001 19.913 0.588001C20.305 0.980001 20.5007 1.45067 20.5 2V8.275C19.9167 7.85834 19.279 7.54167 18.587 7.325C17.895 7.10834 17.191 7 16.475 7C14.5417 7 12.8957 7.68334 11.537 9.05C10.1783 10.4167 9.49934 12.0667 9.5 14C9.5 14.35 9.525 14.6917 9.575 15.025C9.625 15.3583 9.7 15.6833 9.8 16H2.5Z" fill="white"/>
</svg>
