<svg width="25" height="24" viewBox="0 0 25 24" fill="none" xmlns="http://www.w3.org/2000/svg">
<path d="M15.34 2.59C14.96 2.21 14.45 2 13.92 2H6.75C5.65 2 4.75 2.9 4.75 4V20C4.75 21.1 5.64 22 6.74 22H18.75C19.85 22 20.75 21.1 20.75 20V8.83C20.75 8.3 20.54 7.79 20.16 7.42L15.34 2.59ZM15.75 16H13.75V18C13.75 18.55 13.3 19 12.75 19C12.2 19 11.75 18.55 11.75 18V16H9.75C9.2 16 8.75 15.55 8.75 15C8.75 14.45 9.2 14 9.75 14H11.75V12C11.75 11.45 12.2 11 12.75 11C13.3 11 13.75 11.45 13.75 12V14H15.75C16.3 14 16.75 14.45 16.75 15C16.75 15.55 16.3 16 15.75 16ZM13.75 8V3.5L19.25 9H14.75C14.2 9 13.75 8.55 13.75 8Z" fill="white"/>
</svg>
