<svg width="36" height="36" viewBox="0 0 36 36" fill="none" xmlns="http://www.w3.org/2000/svg">
<g id="Speaker">
<path id="Vector" d="M22.5 6.37494C22.5 4.75494 20.589 3.89844 19.38 4.97244L12.6405 10.9649C12.4348 11.1482 12.169 11.2496 11.8935 11.2499H6.375C5.48041 11.2499 4.62242 11.6051 3.98957 12.2374C3.35673 12.8697 3.0008 13.7274 3 14.6219V21.3674C3 22.2625 3.35558 23.121 3.98851 23.7539C4.62145 24.3869 5.47989 24.7424 6.375 24.7424H11.895C12.1705 24.7428 12.4363 24.8442 12.642 25.0274L19.3785 31.0169C20.5875 32.0924 22.5 31.2344 22.5 29.6159V6.37494ZM14.1375 12.6449L20.25 7.20894V28.7819L14.1375 23.3474C13.5198 22.7979 12.7218 22.4942 11.895 22.4939H6.375C6.07663 22.4939 5.79048 22.3754 5.5795 22.1644C5.36853 21.9535 5.25 21.6673 5.25 21.3689V14.6219C5.25 14.3236 5.36853 14.0374 5.5795 13.8264C5.79048 13.6155 6.07663 13.4969 6.375 13.4969H11.895C12.7216 13.4971 13.5196 13.194 14.1375 12.6449ZM28.488 8.84544C28.7277 8.66785 29.0281 8.59273 29.3232 8.63661C29.6183 8.68049 29.8839 8.83978 30.0615 9.07944C31.9746 11.6597 33.005 14.7878 33 17.9999C33.0045 21.2122 31.9735 24.3403 30.06 26.9204C29.973 27.0416 29.8628 27.1443 29.7358 27.2225C29.6087 27.3007 29.4674 27.3529 29.32 27.376C29.1726 27.399 29.0221 27.3926 28.8772 27.3569C28.7324 27.3213 28.596 27.2572 28.4762 27.1684C28.3563 27.0795 28.2553 26.9678 28.1791 26.8395C28.1028 26.7113 28.0528 26.5692 28.032 26.4215C28.0112 26.2738 28.02 26.1234 28.0578 25.9791C28.0957 25.8348 28.1619 25.6994 28.2525 25.5809C29.8788 23.3884 30.7547 20.7298 30.75 17.9999C30.7544 15.2706 29.8785 12.6126 28.2525 10.4204C28.1644 10.3016 28.1006 10.1666 28.0648 10.0231C28.0289 9.87956 28.0217 9.73039 28.0436 9.5841C28.0655 9.43781 28.116 9.29727 28.1923 9.17052C28.2685 9.04377 28.369 8.9333 28.488 8.84544ZM25.7145 12.5534C25.8444 12.483 25.9869 12.4388 26.1339 12.4235C26.2809 12.4081 26.4294 12.4218 26.5711 12.4639C26.7128 12.506 26.8447 12.5755 26.9595 12.6686C27.0743 12.7617 27.1696 12.8765 27.24 13.0064C28.044 14.4929 28.5 16.1939 28.5 17.9999C28.5025 19.7429 28.0694 21.4589 27.24 22.9919C27.1697 23.1219 27.0744 23.2368 26.9597 23.33C26.845 23.4232 26.713 23.4929 26.5714 23.5351C26.4297 23.5773 26.2811 23.5912 26.1341 23.576C25.9871 23.5608 25.8445 23.5168 25.7145 23.4464C25.5845 23.3761 25.4696 23.2809 25.3764 23.1662C25.2832 23.0514 25.2135 22.9195 25.1713 22.7778C25.1291 22.6362 25.1152 22.4876 25.1304 22.3406C25.1457 22.1935 25.1897 22.0509 25.26 21.9209C25.89 20.7554 26.25 19.4204 26.25 17.9984C26.2517 16.6294 25.9114 15.2816 25.26 14.0774C25.1183 13.815 25.0866 13.5071 25.1718 13.2214C25.257 12.9356 25.4522 12.6954 25.7145 12.5534Z" fill="white"/>
</g>
</svg>
