<svg width="24" height="24" viewBox="0 0 24 24" fill="none" xmlns="http://www.w3.org/2000/svg">
<circle cx="12" cy="12" r="12" fill="#68FC80"/>
<path d="M8.18214 15.2888C7.47558 15.2888 6.90089 15.0335 6.46995 14.5266C6.03902 14.0197 5.7562 13.2675 5.59152 12.1732C5.34902 10.5604 5.58964 9.20098 6.26902 8.34567C6.66902 7.84192 7.19402 7.55067 7.78714 7.5038C8.29495 7.46317 9.05402 7.66911 9.78714 8.8788C10.2462 9.6363 10.5953 10.6425 10.745 11.6394C10.9259 12.8429 10.7912 13.7288 10.3331 14.3472C9.96933 14.8385 9.40995 15.1429 8.67027 15.2535C8.50865 15.2772 8.3455 15.289 8.18214 15.2888ZM9.4062 19.4991C8.99339 19.4991 8.57495 19.3669 8.19808 19.1129C7.65424 18.7443 7.27781 18.1761 7.15058 17.5316C7.06152 17.0735 7.11495 16.7094 7.3137 16.4179C7.63652 15.9444 8.21589 15.8379 8.82902 15.7247C8.8937 15.7129 8.95933 15.701 9.02589 15.6882C9.16714 15.6613 9.31152 15.6257 9.45152 15.591C9.97589 15.4616 10.5184 15.3275 10.9662 15.6457C11.2659 15.8582 11.435 16.2194 11.4856 16.7494C11.5431 17.361 11.4118 17.9713 11.1159 18.4682C10.7975 19.0029 10.32 19.3563 9.77214 19.4638C9.65159 19.4873 9.52904 19.4992 9.4062 19.4991ZM15.8178 12.2888C15.6546 12.2882 15.4916 12.2757 15.3303 12.2513C14.5909 12.1419 14.0315 11.8372 13.6678 11.345C13.2096 10.7266 13.074 9.84098 13.2559 8.63723C13.4056 7.63942 13.7537 6.63411 14.2106 5.87942C14.94 4.67411 15.7 4.46505 16.2106 4.50192C16.8018 4.54505 17.3259 4.83223 17.7265 5.33317C18.4106 6.18848 18.6531 7.55192 18.4096 9.17192C18.245 10.2657 17.9659 11.0141 17.5312 11.5254C17.0965 12.0366 16.5243 12.2888 15.8178 12.2888ZM14.5937 16.4991C14.4712 16.4991 14.349 16.4873 14.2287 16.4638C13.68 16.3563 13.2025 16.0029 12.885 15.4682C12.589 14.9713 12.4578 14.361 12.5153 13.7494C12.5653 13.2182 12.734 12.8582 13.0346 12.6454C13.4825 12.3275 14.025 12.4613 14.5493 12.591C14.6893 12.6254 14.8337 12.661 14.975 12.6882L15.1715 12.7247C15.785 12.8375 16.3643 12.9435 16.6871 13.4175C16.8859 13.7091 16.9393 14.0738 16.8503 14.5313C16.7231 15.1759 16.3467 15.7443 15.8028 16.1129C15.4237 16.3672 15.0053 16.4991 14.5937 16.4991Z" fill="#1B1F24"/>
</svg>
