<svg width="24" height="24" viewBox="0 0 24 24" fill="none" xmlns="http://www.w3.org/2000/svg">
<circle cx="12" cy="12" r="12" fill="#FFB800"/>
<path d="M12.75 13.753V8.31205H10.75V13.752C10.0485 14.116 9.563 14.842 9.563 15.687C9.57162 16.2615 9.80587 16.8096 10.2152 17.2128C10.6245 17.6161 11.1759 17.8422 11.7505 17.8422C12.3251 17.8423 12.8766 17.6163 13.286 17.2132C13.6954 16.81 13.9298 16.262 13.9385 15.6875C13.9385 14.8425 13.4535 14.1165 12.7505 13.7535L12.75 13.753ZM14.25 6.62305C14.25 5.24505 13.128 4.12305 11.75 4.12305C10.372 4.12305 9.25 5.24555 9.25 6.62305V12.9865C8.87542 13.3295 8.57638 13.7466 8.37192 14.2115C8.16747 14.6764 8.06209 15.1787 8.0625 15.6865C8.0625 17.7195 9.7175 19.375 11.7505 19.375C13.7835 19.375 15.438 17.72 15.438 15.6865C15.438 14.6435 14.999 13.6715 14.2505 12.9855V6.62405L14.25 6.62305ZM14.4375 15.688C14.4366 16.4004 14.1531 17.0833 13.6492 17.5868C13.1454 18.0904 12.4623 18.3735 11.75 18.374C11.0378 18.3731 10.355 18.0898 9.85138 17.5862C9.34777 17.0826 9.06443 16.3998 9.0635 15.6875C9.0635 14.79 9.5115 13.966 10.2515 13.4685V6.62405C10.2515 5.79755 10.923 5.12405 11.75 5.12405C12.577 5.12405 13.25 5.79705 13.25 6.62405V13.469C13.6153 13.7125 13.9148 14.0424 14.122 14.4294C14.3291 14.8164 14.4375 15.2491 14.4375 15.688ZM15.0425 8.31205L17.2925 9.61105V7.01405L15.0425 8.31205Z" fill="#1B1F24"/>
</svg>
