<svg width="24" height="24" viewBox="0 0 24 24" fill="none" xmlns="http://www.w3.org/2000/svg">
<path d="M14 5.00009C14 5.53009 13.794 6.01209 13.457 6.37009L16.081 9.65009C16.1167 9.69485 16.1666 9.72602 16.2225 9.7384C16.2783 9.75078 16.3368 9.74361 16.388 9.71809L19.038 8.39209C18.9807 8.10197 18.9884 7.80277 19.0604 7.51595C19.1325 7.22914 19.2671 6.96182 19.4546 6.73318C19.6422 6.50453 19.878 6.32023 20.1452 6.19348C20.4124 6.06674 20.7043 6.00069 21 6.00009C21.4917 6.00019 21.9661 6.18141 22.3326 6.50912C22.6992 6.83684 22.9322 7.28809 22.9871 7.77669C23.042 8.26529 22.915 8.757 22.6304 9.15791C22.3457 9.55883 21.9234 9.84084 21.444 9.95009L19.64 19.5731C19.5647 19.9742 19.3515 20.3363 19.0375 20.5969C18.7234 20.8575 18.3281 21.0001 17.92 21.0001H6.08C5.6719 21.0001 5.27663 20.8575 4.96254 20.5969C4.64846 20.3363 4.43533 19.9742 4.36 19.5731L2.556 9.95009C2.17259 9.86264 1.82347 9.66408 1.5523 9.37927C1.28113 9.09445 1.09994 8.73601 1.03139 8.34877C0.962849 7.96153 1.00999 7.56268 1.16692 7.20208C1.32385 6.84149 1.5836 6.53516 1.9137 6.32141C2.24379 6.10766 2.62958 5.99596 3.02282 6.0003C3.41606 6.00463 3.79929 6.1248 4.1246 6.34578C4.4499 6.56675 4.70284 6.87873 4.85178 7.24269C5.00073 7.60666 5.03907 8.00646 4.962 8.39209L7.612 9.71809C7.66323 9.74361 7.72166 9.75078 7.77753 9.7384C7.83341 9.72602 7.88334 9.69485 7.919 9.65009L10.543 6.37009C10.3195 6.13238 10.1575 5.84358 10.0712 5.52889C9.98491 5.2142 9.97693 4.88318 10.048 4.56469C10.119 4.24621 10.2668 3.94994 10.4787 3.70173C10.6905 3.45352 10.9598 3.2609 11.2632 3.14068C11.5665 3.02046 11.8947 2.9763 12.219 3.01203C12.5434 3.04776 12.854 3.16231 13.1239 3.34569C13.3939 3.52906 13.6148 3.77569 13.7675 4.06406C13.9202 4.35243 14 4.67379 14 5.00009ZM12 17.0001C12.5304 17.0001 13.0391 16.7894 13.4142 16.4143C13.7893 16.0392 14 15.5305 14 15.0001C14 14.4697 13.7893 13.961 13.4142 13.5859C13.0391 13.2108 12.5304 13.0001 12 13.0001C11.4696 13.0001 10.9609 13.2108 10.5858 13.5859C10.2107 13.961 10 14.4697 10 15.0001C10 15.5305 10.2107 16.0392 10.5858 16.4143C10.9609 16.7894 11.4696 17.0001 12 17.0001Z" fill="#1B1F24"/>
</svg>
