<svg width="25" height="24" viewBox="0 0 25 24" fill="none" xmlns="http://www.w3.org/2000/svg">
<path d="M8.47 16.4554L10.231 15.9474L20.834 5.21736C20.9176 5.13165 20.9642 5.01649 20.9636 4.89674C20.9631 4.777 20.9154 4.66227 20.831 4.57736L20.196 3.93536C20.155 3.89319 20.1059 3.85963 20.0518 3.83662C19.9977 3.8136 19.9395 3.80161 19.8806 3.80133C19.8218 3.80105 19.7635 3.81249 19.7091 3.83499C19.6548 3.85749 19.6054 3.89059 19.564 3.93236L8.989 14.6344L8.469 16.4544L8.47 16.4554ZM21.453 2.66336L22.088 3.30636C22.964 4.19336 22.972 5.62436 22.104 6.50236L11.178 17.5604L7.414 18.6444C7.1842 18.7087 6.93826 18.6792 6.73016 18.5624C6.52206 18.4456 6.3688 18.251 6.304 18.0214C6.25578 17.8562 6.25509 17.6809 6.302 17.5154L7.397 13.6754L18.294 2.64636C18.5012 2.43772 18.7479 2.27242 19.0196 2.16011C19.2914 2.0478 19.5828 1.99073 19.8769 1.99222C20.1709 1.99371 20.4617 2.05373 20.7323 2.16878C21.0029 2.28384 21.2479 2.45263 21.453 2.66336ZM9.934 3.81636C10.43 3.81636 10.832 4.22336 10.832 4.72536C10.8328 4.84403 10.8102 4.96169 10.7655 5.07161C10.7208 5.18154 10.6548 5.28157 10.5714 5.36599C10.488 5.45041 10.3888 5.51757 10.2794 5.56362C10.17 5.60967 10.0527 5.6337 9.934 5.63436H6.342C5.35 5.63436 4.546 6.44836 4.546 7.45136V18.3574C4.546 19.3614 5.35 20.1754 6.342 20.1754H17.118C18.11 20.1754 18.915 19.3614 18.915 18.3574V14.7224C18.915 14.2204 19.317 13.8134 19.813 13.8134C20.309 13.8134 20.711 14.2204 20.711 14.7234V18.3574C20.711 20.3654 19.102 21.9934 17.118 21.9934H6.342C4.358 21.9934 2.75 20.3654 2.75 18.3574V7.45136C2.75 5.44436 4.358 3.81636 6.342 3.81636H9.934Z" fill="#1B1F24"/>
</svg>
