<svg width="12" height="13" viewBox="0 0 12 13" fill="none" xmlns="http://www.w3.org/2000/svg">
    <path d="M5.33333 2.87266V4.07266C4.5486 4.07268 3.78121 4.28045 3.12671 4.67008C2.47221 5.05972 1.9595 5.61402 1.65244 6.26396C1.34537 6.9139 1.2575 7.63078 1.39977 8.32533C1.54204 9.01989 1.90816 9.66144 2.45256 10.1701C2.99695 10.6788 3.69557 11.0321 4.46143 11.1861C5.22728 11.34 6.02654 11.2879 6.7597 11.036C7.49285 10.7842 8.12751 10.3439 8.58466 9.76984C9.0418 9.1958 9.30124 8.51342 9.33067 7.80766L9.33333 7.67266H10.6667C10.6667 8.9457 10.1048 10.1666 9.10457 11.0668C8.10438 11.9669 6.74782 12.4727 5.33333 12.4727C3.91885 12.4727 2.56229 11.9669 1.5621 11.0668C0.561903 10.1666 0 8.9457 0 7.67266C0 5.07166 2.38667 2.87266 5.33333 2.87266ZM12 0.472656V1.67266L8.44867 5.27266H12V6.47266H6.66667V5.27266L10.2173 1.67266H6.66667V0.472656H12Z" fill="black"/>
</svg>
